<svg width="74" height="19" viewBox="0 0 74 19" fill="none" xmlns="http://www.w3.org/2000/svg">
<path d="M0.665136 17.2683V17.0258H3.248V17.2683H0.665136ZM2.11193 14.6005L3.95197 18.2384H3.64611L1.85947 14.6684H2.09736L0.305865 18.2384H0L1.84005 14.6005H2.11193Z" fill="black"/>
<path d="M5.21814 18.2384V14.6005H5.49003V18.2384H5.21814ZM6.61153 16.4243L8.18941 14.6005H8.53411L6.9708 16.4146L8.59237 18.2384H8.24767L6.61153 16.4243ZM5.34438 16.2982H6.86885V16.5407H5.34438V16.2982Z" fill="black"/>
<path d="M10.0537 17.2683V17.0258H12.6366V17.2683H10.0537ZM11.5005 14.6005L13.3405 18.2384H13.0347L11.248 14.6684H11.4859L9.69442 18.2384H9.38856L11.2286 14.6005H11.5005Z" fill="black"/>
<path d="M14.16 19V17.9959H18.6461V19H18.3936V18.2384H14.4125V19H14.16ZM15.0048 14.6005H17.9955V18.1172H17.7236V14.7217L17.845 14.843H15.165L15.2767 14.7605C15.2993 14.9675 15.3139 15.1777 15.3204 15.3911C15.3301 15.6045 15.335 15.8067 15.335 15.9974C15.335 16.4275 15.3091 16.801 15.2573 17.1179C15.2055 17.4349 15.1327 17.6806 15.0388 17.8552C14.9449 18.0266 14.8333 18.1123 14.7038 18.1123L14.597 18.0056C14.7588 17.8342 14.8786 17.5804 14.9563 17.2441C15.0339 16.9045 15.0728 16.4728 15.0728 15.9489C15.0728 15.7355 15.0663 15.5124 15.0534 15.2795C15.0404 15.0435 15.0242 14.8171 15.0048 14.6005Z" fill="black"/>
<path d="M22.6288 16.2982V16.5407H19.9051V16.2982H22.6288ZM20.0605 18.2142L19.8857 17.9959H22.7502V18.2384H19.7886V14.6005H22.7259V14.843H19.8857L20.0605 14.6296V18.2142Z" fill="black"/>
<path d="M28.6894 14.6005V18.2384H28.4273V14.6247H28.5826L26.5969 18.2384H26.3153L24.3296 14.6247H24.485V18.2384H24.2228V14.6005H24.6209L26.5824 18.2045H26.3348L28.2913 14.6005H28.6894Z" fill="black"/>
<path d="M30.3608 18.2384V14.6005H30.6327V18.1705H30.4531L33.468 14.6005H33.8224V18.2384H33.5506V14.6684H33.7302L30.7152 18.2384H30.3608Z" fill="black"/>
<path d="M38.1493 16.3952V16.6377H36.4647C36.2316 16.6377 36.0261 16.5957 35.8481 16.5116C35.6701 16.4243 35.5309 16.3047 35.4305 16.1527C35.3302 15.9974 35.28 15.8196 35.28 15.6191C35.28 15.4186 35.3302 15.2424 35.4305 15.0904C35.5309 14.9352 35.6701 14.8155 35.8481 14.7314C36.0261 14.6441 36.2316 14.6005 36.4647 14.6005H38.3387V18.2384H38.0668V14.7217L38.1882 14.843H36.4647C36.1831 14.843 35.9597 14.9141 35.7947 15.0564C35.6328 15.1955 35.5519 15.383 35.5519 15.6191C35.5519 15.8552 35.6328 16.0443 35.7947 16.1866C35.9597 16.3257 36.1831 16.3952 36.4647 16.3952H38.1493ZM37.1395 16.5359L35.581 18.2384H35.2218L36.7802 16.5359H37.1395Z" fill="black"/>
<path d="M0.476128 0C4.27913 0 8.08213 0 11.8851 0C13.1499 0 13.7822 0.362287 13.7822 1.08686C13.7822 1.27242 13.7822 1.44915 13.7822 1.61704C13.7822 1.77609 13.7822 1.93514 13.7822 2.09419C13.7822 2.38579 13.7822 2.69948 13.7822 3.03525C13.7822 3.37103 13.7822 3.80401 13.7822 4.33419C13.7822 5.05876 13.1499 5.42105 11.8851 5.42105C11.3014 5.42105 10.7575 5.42105 10.2534 5.42105C9.74926 5.42105 9.25399 5.42105 8.76756 5.42105C7.85661 5.42105 6.88374 5.42105 5.84897 5.42105C4.80536 5.42105 3.46546 5.42105 1.82929 5.42105C1.82929 5.6773 1.82929 5.91588 1.82929 6.13678C1.82929 6.34885 1.82929 6.56092 1.82929 6.77299C1.82929 7.16179 1.82929 7.58151 1.82929 8.03216C1.82929 8.48281 1.82929 9.06158 1.82929 9.76848C1.60818 9.76848 1.41361 9.76848 1.24557 9.76848C1.06869 9.76848 0.812208 9.76848 0.476128 9.76848C0.476128 8.70813 0.476128 7.76707 0.476128 6.9453C0.476128 6.11469 0.476128 5.17805 0.476128 4.13537C0.476128 3.57869 0.476128 2.96457 0.476128 2.29301C0.476128 1.61262 0.476128 0.848281 0.476128 0ZM1.82929 4.33419C4.91591 4.33419 7.99811 4.33419 11.0759 4.33419C11.978 4.33419 12.4291 4.06468 12.4291 3.52567C12.4291 3.25174 12.4291 3.01316 12.4291 2.80993C12.4291 2.6067 12.4291 2.30185 12.4291 1.89538C12.4291 1.35637 11.978 1.08686 11.0759 1.08686C10.0765 1.08686 9.18323 1.08686 8.3961 1.08686C7.61781 1.08686 6.73781 1.08686 5.75611 1.08686C5.22546 1.08686 4.64174 1.08686 4.00496 1.08686C3.36818 1.08686 2.64296 1.08686 1.82929 1.08686C1.82929 1.27242 1.82929 1.44915 1.82929 1.61704C1.82929 1.77609 1.82929 1.93514 1.82929 2.09419C1.82929 2.38579 1.82929 2.69948 1.82929 3.03525C1.82929 3.37103 1.82929 3.80401 1.82929 4.33419Z" fill="black"/>
<path d="M13.3917 9.76848C15.6115 6.50791 17.8314 3.25174 20.0513 0C20.5024 0 20.9534 0 21.4045 0C23.6244 3.25174 25.8443 6.50791 28.0642 9.76848C24.8449 9.76848 21.63 9.76848 18.4196 9.76848C19.189 8.59326 19.9585 7.41804 20.7279 6.24282C21.179 6.24282 21.63 6.24282 22.0811 6.24282C21.5858 7.05575 21.0861 7.86869 20.582 8.68163C22.2182 8.68163 23.8499 8.68163 25.4772 8.68163C23.8941 6.287 22.311 3.88795 20.7279 1.48449C18.9148 4.25024 17.1018 7.01157 15.2887 9.76848C14.6519 9.76848 14.0196 9.76848 13.3917 9.76848Z" fill="black"/>
<path d="M29.42 0C33.0461 0 36.6722 0 40.2983 0C41.563 0 42.1954 0.362287 42.1954 1.08686C42.1954 1.53751 42.1954 1.93072 42.1954 2.2665C42.1954 2.61111 42.1954 3.1192 42.1954 3.79076C42.1954 4.51533 41.8328 4.87761 41.1076 4.87761C42.0097 4.87761 42.4607 5.2399 42.4607 5.96448C42.4607 6.41512 42.4607 6.81276 42.4607 7.15737C42.4607 7.49315 42.4607 8.00123 42.4607 8.68163C42.4607 9.4062 41.8284 9.76848 40.5637 9.76848C39.9003 9.76848 39.2812 9.76848 38.7064 9.76848C38.1404 9.76848 37.5787 9.76848 37.0216 9.76848C36.3582 9.76848 35.6684 9.76848 34.952 9.76848C34.2356 9.76848 33.4264 9.76848 32.5243 9.76848C32.0379 9.76848 31.5161 9.76848 30.9589 9.76848C30.4017 9.76848 29.8003 9.76848 29.1547 9.76848C29.1547 9.59176 29.1547 9.43271 29.1547 9.29133C29.1547 9.15878 29.1547 8.95555 29.1547 8.68163C30.3044 8.68163 31.3259 8.68163 32.2192 8.68163C33.1124 8.68163 34.1251 8.68163 35.2571 8.68163C35.8674 8.68163 36.5351 8.68163 37.2603 8.68163C37.9944 8.68163 38.8258 8.68163 39.7544 8.68163C40.6565 8.68163 41.1076 8.41212 41.1076 7.87311C41.1076 7.59918 41.1076 7.3606 41.1076 7.15737C41.1076 6.95414 41.1076 6.64929 41.1076 6.24282C41.1076 5.69497 40.6565 5.42105 39.7544 5.42105C38.8965 5.42105 38.1359 5.42105 37.4726 5.42105C36.8005 5.42105 36.0487 5.42105 35.2173 5.42105C34.7574 5.42105 34.2577 5.42105 33.7183 5.42105C33.1788 5.42105 32.5641 5.42105 31.8742 5.42105C31.8742 5.24432 31.8742 5.08527 31.8742 4.94389C31.8742 4.81134 31.8742 4.60811 31.8742 4.33419C32.3164 4.33419 32.7277 4.33419 33.108 4.33419C33.4883 4.33419 33.8642 4.33419 34.2356 4.33419C34.9166 4.33419 35.6507 4.33419 36.4378 4.33419C37.225 4.33419 38.2376 4.33419 39.4758 4.33419C40.3868 4.33419 40.8422 4.06468 40.8422 3.52567C40.8422 3.25174 40.8422 3.01316 40.8422 2.80993C40.8422 2.6067 40.8422 2.30185 40.8422 1.89538C40.8422 1.35637 40.3868 1.08686 39.4758 1.08686C38.8921 1.08686 38.3482 1.08686 37.8441 1.08686C37.34 1.08686 36.8447 1.08686 36.3582 1.08686C35.4473 1.08686 34.4744 1.08686 33.4397 1.08686C32.396 1.08686 31.0562 1.08686 29.42 1.08686C29.42 0.901298 29.42 0.742246 29.42 0.609702C29.42 0.468322 29.42 0.265088 29.42 0Z" fill="black"/>
<path d="M43.4318 0C44.0155 0 44.6037 0 45.1962 0C47.0977 1.58169 48.9992 3.16338 50.9007 4.74507C52.8022 3.16338 54.7037 1.58169 56.6052 0C57.189 0 57.7771 0 58.3697 0C54.5667 3.25174 50.7637 6.50791 46.9607 9.76848C46.3681 9.76848 45.78 9.76848 45.1962 9.76848C46.8236 8.31934 48.4509 6.87019 50.0782 5.42105C49.9456 5.42105 49.8129 5.42105 49.6802 5.42105C47.593 3.61845 45.5102 1.81143 43.4318 0Z" fill="black"/>
<path d="M59.3275 9.76848C59.3275 6.50791 59.3275 3.25174 59.3275 0C59.7785 0 60.2296 0 60.6807 0C62.6352 2.71273 64.5854 5.42546 66.5311 8.1382C68.5652 5.42546 70.5994 2.71273 72.6336 0C73.0935 0 73.549 0 74 0C74 3.25174 74 6.50791 74 9.76848C73.549 9.76848 73.0935 9.76848 72.6336 9.76848C72.6336 7.27666 72.6336 4.78925 72.6336 2.30626C70.8294 4.78925 69.0207 7.27666 67.2077 9.76848C66.7566 9.76848 66.3011 9.76848 65.8412 9.76848C64.1255 7.27666 62.4053 4.78925 60.6807 2.30626C60.6807 4.78925 60.6807 7.27666 60.6807 9.76848C60.2296 9.76848 59.7785 9.76848 59.3275 9.76848Z" fill="black"/>
</svg>
