<svg class="icon" width="30" height="30" viewBox="0 0 30 30" fill="none" xmlns="http://www.w3.org/2000/svg">
                  <g filter="url(#filter0_i_0_41)">
                    <path d="M20 19.0625C20.8629 19.0625 21.5625 18.3629 21.5625 17.5C21.5625 16.6371 20.8629 15.9375 20 15.9375C19.1371 15.9375 18.4375 16.6371 18.4375 17.5C18.4375 18.3629 19.1371 19.0625 20 19.0625Z" fill="url(#paint0_linear_0_41)"></path>
                    <path d="M11.5625 12.5C11.5625 11.6371 10.8629 10.9375 10 10.9375C9.13706 10.9375 8.4375 11.6371 8.4375 12.5C8.4375 13.3629 9.13706 14.0625 10 14.0625C10.8629 14.0625 11.5625 13.3629 11.5625 12.5Z" fill="url(#paint1_linear_0_41)"></path>
                    <path fill-rule="evenodd" clip-rule="evenodd" d="M15 27.5C9.10744 27.5 6.16117 27.5 4.33058 25.6694C2.5 23.8388 2.5 20.8926 2.5 15C2.5 9.10744 2.5 6.16117 4.33058 4.33058C6.16116 2.5 9.10744 2.5 15 2.5C20.8926 2.5 23.8388 2.5 25.6694 4.33058C27.5 6.16116 27.5 9.10744 27.5 15C27.5 20.8926 27.5 23.8388 25.6694 25.6694C23.8388 27.5 20.8926 27.5 15 27.5ZM23.4375 17.5C23.4375 19.3985 21.8985 20.9375 20 20.9375C18.1015 20.9375 16.5625 19.3985 16.5625 17.5C16.5625 15.6015 18.1015 14.0625 20 14.0625C21.8985 14.0625 23.4375 15.6015 23.4375 17.5ZM10 9.0625C11.8985 9.0625 13.4375 10.6015 13.4375 12.5C13.4375 14.3985 11.8985 15.9375 10 15.9375C8.10152 15.9375 6.5625 14.3985 6.5625 12.5C6.5625 10.6015 8.10152 9.0625 10 9.0625ZM20 13.4375C19.4822 13.4375 19.0625 13.0178 19.0625 12.5V6.25C19.0625 5.73223 19.4822 5.3125 20 5.3125C20.5178 5.3125 20.9375 5.73223 20.9375 6.25V12.5C20.9375 13.0178 20.5178 13.4375 20 13.4375ZM9.0625 17.5C9.0625 16.9822 9.48223 16.5625 10 16.5625C10.5178 16.5625 10.9375 16.9822 10.9375 17.5L10.9375 23.75C10.9375 24.2678 10.5178 24.6875 10 24.6875C9.48223 24.6875 9.0625 24.2678 9.0625 23.75L9.0625 17.5ZM20 24.6875C19.4822 24.6875 19.0625 24.2678 19.0625 23.75V22.5C19.0625 21.9822 19.4822 21.5625 20 21.5625C20.5178 21.5625 20.9375 21.9822 20.9375 22.5V23.75C20.9375 24.2678 20.5178 24.6875 20 24.6875ZM9.0625 6.25C9.0625 5.73223 9.48223 5.3125 10 5.3125C10.5178 5.3125 10.9375 5.73223 10.9375 6.25V7.5C10.9375 8.01777 10.5178 8.4375 10 8.4375C9.48223 8.4375 9.0625 8.01777 9.0625 7.5V6.25Z" fill="url(#paint2_linear_0_41)"></path>
                  </g>
                  <defs>
                    <filter id="filter0_i_0_41" x="2.5" y="2.5" width="25" height="25" filterUnits="userSpaceOnUse" color-interpolation-filters="sRGB">
                      <feFlood flood-opacity="0" result="BackgroundImageFix"></feFlood>
                      <feBlend mode="normal" in="SourceGraphic" in2="BackgroundImageFix" result="shape"></feBlend>
                      <feColorMatrix in="SourceAlpha" type="matrix" values="0 0 0 0 0 0 0 0 0 0 0 0 0 0 0 0 0 0 127 0" result="hardAlpha"></feColorMatrix>
                      <feMorphology radius="1.04913" operator="erode" in="SourceAlpha" result="effect1_innerShadow_0_41"></feMorphology>
                      <feOffset></feOffset>
                      <feGaussianBlur stdDeviation="3"></feGaussianBlur>
                      <feComposite in2="hardAlpha" operator="arithmetic" k2="-1" k3="1"></feComposite>
                      <feColorMatrix type="matrix" values="0 0 0 0 0.630578 0 0 0 0 0.826154 0 0 0 0 1 0 0 0 1 0"></feColorMatrix>
                      <feBlend mode="normal" in2="shape" result="effect1_innerShadow_0_41"></feBlend>
                    </filter>
                    <linearGradient id="paint0_linear_0_41" x1="2.5" y1="18.5826" x2="27.5074" y2="18.8691" gradientUnits="userSpaceOnUse">
                      <stop stop-color="#4185DE"></stop>
                      <stop offset="1" stop-color="#11A8FF"></stop>
                    </linearGradient>
                    <linearGradient id="paint1_linear_0_41" x1="2.5" y1="18.5826" x2="27.5074" y2="18.8691" gradientUnits="userSpaceOnUse">
                      <stop stop-color="#4185DE"></stop>
                      <stop offset="1" stop-color="#11A8FF"></stop>
                    </linearGradient>
                    <linearGradient id="paint2_linear_0_41" x1="2.5" y1="18.5826" x2="27.5074" y2="18.8691" gradientUnits="userSpaceOnUse">
                      <stop stop-color="#4185DE"></stop>
                      <stop offset="1" stop-color="#11A8FF"></stop>
                    </linearGradient>
                  </defs>
                </svg>