<svg class="icon" width="30" height="30" viewBox="0 0 30 30" fill="none" xmlns="http://www.w3.org/2000/svg">
                  <g filter="url(#filter0_i_0_38)">
                    <path d="M21.6161 2.86612C21.25 3.23223 21.25 3.82149 21.25 5V21.25C21.25 22.4285 21.25 23.0178 21.6161 23.3839C21.9822 23.75 22.5715 23.75 23.75 23.75C24.9285 23.75 25.5178 23.75 25.8839 23.3839C26.25 23.0178 26.25 22.4285 26.25 21.25V5C26.25 3.82149 26.25 3.23223 25.8839 2.86612C25.5178 2.5 24.9285 2.5 23.75 2.5C22.5715 2.5 21.9822 2.5 21.6161 2.86612Z" fill="url(#paint0_linear_0_38)"></path>
                    <path d="M12.5 8.75C12.5 7.57149 12.5 6.98223 12.8661 6.61612C13.2322 6.25 13.8215 6.25 15 6.25C16.1785 6.25 16.7678 6.25 17.1339 6.61612C17.5 6.98223 17.5 7.57149 17.5 8.75V21.25C17.5 22.4285 17.5 23.0178 17.1339 23.3839C16.7678 23.75 16.1785 23.75 15 23.75C13.8215 23.75 13.2322 23.75 12.8661 23.3839C12.5 23.0178 12.5 22.4285 12.5 21.25V8.75Z" fill="url(#paint1_linear_0_38)"></path>
                    <path d="M4.11612 11.6161C3.75 11.9822 3.75 12.5715 3.75 13.75V21.25C3.75 22.4285 3.75 23.0178 4.11612 23.3839C4.48223 23.75 5.07149 23.75 6.25 23.75C7.42851 23.75 8.01777 23.75 8.38388 23.3839C8.75 23.0178 8.75 22.4285 8.75 21.25V13.75C8.75 12.5715 8.75 11.9822 8.38388 11.6161C8.01777 11.25 7.42851 11.25 6.25 11.25C5.07149 11.25 4.48223 11.25 4.11612 11.6161Z" fill="url(#paint2_linear_0_38)"></path>
                    <path d="M3.75 26.5625C3.23223 26.5625 2.8125 26.9822 2.8125 27.5C2.8125 28.0178 3.23223 28.4375 3.75 28.4375H26.25C26.7678 28.4375 27.1875 28.0178 27.1875 27.5C27.1875 26.9822 26.7678 26.5625 26.25 26.5625H3.75Z" fill="url(#paint3_linear_0_38)"></path>
                  </g>
                  <defs>
                    <filter id="filter0_i_0_38" x="2.8125" y="2.5" width="24.375" height="25.9375" filterUnits="userSpaceOnUse" color-interpolation-filters="sRGB">
                      <feFlood flood-opacity="0" result="BackgroundImageFix"></feFlood>
                      <feBlend mode="normal" in="SourceGraphic" in2="BackgroundImageFix" result="shape"></feBlend>
                      <feColorMatrix in="SourceAlpha" type="matrix" values="0 0 0 0 0 0 0 0 0 0 0 0 0 0 0 0 0 0 127 0" result="hardAlpha"></feColorMatrix>
                      <feMorphology radius="1.04913" operator="erode" in="SourceAlpha" result="effect1_innerShadow_0_38"></feMorphology>
                      <feOffset></feOffset>
                      <feGaussianBlur stdDeviation="3"></feGaussianBlur>
                      <feComposite in2="hardAlpha" operator="arithmetic" k2="-1" k3="1"></feComposite>
                      <feColorMatrix type="matrix" values="0 0 0 0 0.630578 0 0 0 0 0.826154 0 0 0 0 1 0 0 0 1 0"></feColorMatrix>
                      <feBlend mode="normal" in2="shape" result="effect1_innerShadow_0_38"></feBlend>
                    </filter>
                    <linearGradient id="paint0_linear_0_38" x1="2.8125" y1="19.1856" x2="27.1951" y2="19.4482" gradientUnits="userSpaceOnUse">
                      <stop stop-color="#4185DE"></stop>
                      <stop offset="1" stop-color="#11A8FF"></stop>
                    </linearGradient>
                    <linearGradient id="paint1_linear_0_38" x1="2.8125" y1="19.1856" x2="27.1951" y2="19.4482" gradientUnits="userSpaceOnUse">
                      <stop stop-color="#4185DE"></stop>
                      <stop offset="1" stop-color="#11A8FF"></stop>
                    </linearGradient>
                    <linearGradient id="paint2_linear_0_38" x1="2.8125" y1="19.1856" x2="27.1951" y2="19.4482" gradientUnits="userSpaceOnUse">
                      <stop stop-color="#4185DE"></stop>
                      <stop offset="1" stop-color="#11A8FF"></stop>
                    </linearGradient>
                    <linearGradient id="paint3_linear_0_38" x1="2.8125" y1="19.1856" x2="27.1951" y2="19.4482" gradientUnits="userSpaceOnUse">
                      <stop stop-color="#4185DE"></stop>
                      <stop offset="1" stop-color="#11A8FF"></stop>
                    </linearGradient>
                  </defs>
                </svg>