<svg class="icon" width="30" height="30" viewBox="0 0 30 30" fill="none" xmlns="http://www.w3.org/2000/svg">
                  <g filter="url(#filter0_i_0_45)">
                    <path fill-rule="evenodd" clip-rule="evenodd" d="M15 27.5C21.9036 27.5 27.5 21.9036 27.5 15C27.5 8.09644 21.9036 2.5 15 2.5C8.09644 2.5 2.5 8.09644 2.5 15C2.5 16.9996 2.96952 18.8895 3.80433 20.5656C4.02617 21.011 4.10001 21.5201 3.9714 22.0008L3.22689 24.7833C2.90369 25.9912 4.00877 27.0963 5.21668 26.7731L7.99923 26.0286C8.47992 25.9 8.98901 25.9738 9.43441 26.1957C11.1105 27.0305 13.0004 27.5 15 27.5ZM10 16.5625C9.48223 16.5625 9.0625 16.9822 9.0625 17.5C9.0625 18.0178 9.48223 18.4375 10 18.4375H16.875C17.3928 18.4375 17.8125 18.0178 17.8125 17.5C17.8125 16.9822 17.3928 16.5625 16.875 16.5625H10ZM9.0625 13.125C9.0625 12.6072 9.48223 12.1875 10 12.1875H20C20.5178 12.1875 20.9375 12.6072 20.9375 13.125C20.9375 13.6428 20.5178 14.0625 20 14.0625H10C9.48223 14.0625 9.0625 13.6428 9.0625 13.125Z" fill="url(#paint0_linear_0_45)"></path>
                  </g>
                  <defs>
                    <filter id="filter0_i_0_45" x="2.5" y="2.5" width="25" height="25" filterUnits="userSpaceOnUse" color-interpolation-filters="sRGB">
                      <feFlood flood-opacity="0" result="BackgroundImageFix"></feFlood>
                      <feBlend mode="normal" in="SourceGraphic" in2="BackgroundImageFix" result="shape"></feBlend>
                      <feColorMatrix in="SourceAlpha" type="matrix" values="0 0 0 0 0 0 0 0 0 0 0 0 0 0 0 0 0 0 127 0" result="hardAlpha"></feColorMatrix>
                      <feMorphology radius="1.04913" operator="erode" in="SourceAlpha" result="effect1_innerShadow_0_45"></feMorphology>
                      <feOffset></feOffset>
                      <feGaussianBlur stdDeviation="3"></feGaussianBlur>
                      <feComposite in2="hardAlpha" operator="arithmetic" k2="-1" k3="1"></feComposite>
                      <feColorMatrix type="matrix" values="0 0 0 0 0.630578 0 0 0 0 0.826154 0 0 0 0 1 0 0 0 1 0"></feColorMatrix>
                      <feBlend mode="normal" in2="shape" result="effect1_innerShadow_0_45"></feBlend>
                    </filter>
                    <linearGradient id="paint0_linear_0_45" x1="2.5" y1="18.5826" x2="27.5074" y2="18.8691" gradientUnits="userSpaceOnUse">
                      <stop stop-color="#4185DE"></stop>
                      <stop offset="1" stop-color="#11A8FF"></stop>
                    </linearGradient>
                  </defs>
                </svg>