<svg width="93" height="19" viewBox="0 0 93 19" fill="none" xmlns="http://www.w3.org/2000/svg">
<path d="M13.8761 9.09354C14.9187 8.05373 15.4305 6.78707 15.4305 5.33135C15.4305 3.87563 14.8997 2.59005 13.8761 1.56916C12.8335 0.529359 11.5634 0.0189116 10.1038 0.0189116H0V2.34428H10.1038C10.9378 2.34428 11.6392 2.62787 12.2269 3.23284C12.8145 3.81891 13.1178 4.51841 13.1178 5.35025C13.1178 6.18209 12.8335 6.8816 12.2269 7.46767C11.6392 8.05374 10.9378 8.35622 10.1038 8.35622H0V19H2.33163V10.6816H8.87159L12.8335 19H15.5442L11.3738 10.5114C12.3216 10.2846 13.1557 9.81194 13.8761 9.09354Z" fill="#171A22"/>
<path d="M52.3007 0H38.8796V2.32537H48.6231L40.6804 18.9811H54.31V16.6557H44.3769L52.3007 0Z" fill="#171A22"/>
<path d="M68.3757 16.6557H64.7739C62.7835 16.6557 61.1154 15.9751 59.6936 14.5572C58.2719 13.1393 57.5895 11.4945 57.5895 9.49054V0H55.2578V9.49054C55.2578 12.0995 56.1867 14.3493 58.0444 16.202C59.8832 18.0358 62.158 18.9811 64.7739 18.9811H70.7073V0H68.3757V16.6557Z" fill="#171A22"/>
<path d="M91.4266 1.56916C90.384 0.529359 89.1139 0.0189116 87.6543 0.0189116C86.1947 0.0189116 84.9056 0.548264 83.882 1.56916C83.7493 1.7015 83.6166 1.85274 83.4839 2.00399C83.3702 1.85274 83.2375 1.7015 83.0858 1.56916C82.0432 0.529359 80.7731 0.0189116 79.3135 0.0189116C77.8349 0.0189116 76.5648 0.548264 75.5412 1.56916C74.4986 2.60896 73.9867 3.87563 73.9867 5.33135V18.9811H76.2994V5.33135C76.2994 4.49951 76.5838 3.80001 77.1904 3.21394C77.778 2.62787 78.4794 2.32538 79.3135 2.32538C80.1476 2.32538 80.849 2.60896 81.4366 3.21394C82.0243 3.80001 82.3276 4.49951 82.3276 5.33135V18.9811H84.6402V5.33135C84.6402 4.49951 84.9246 3.80001 85.5312 3.21394C86.1188 2.62787 86.8202 2.32538 87.6543 2.32538C88.4884 2.32538 89.1898 2.60896 89.7774 3.21394C90.3651 3.80001 90.6684 4.49951 90.6684 5.33135V18.9811H93V5.33135C93 3.85672 92.4692 2.59005 91.4266 1.56916Z" fill="#171A22"/>
<path d="M38.5952 9.94428C37.1735 7.48657 34.8987 5.55821 32.169 4.59403C33.022 5.55821 33.5338 6.82488 33.5338 8.20498C33.5338 8.56418 33.4959 8.92339 33.4391 9.26369L29.0412 0.0189116H27.1455L22.7477 9.26369C22.6718 8.92339 22.6529 8.56418 22.6529 8.20498C22.6529 6.82488 23.1647 5.55821 24.0177 4.59403C21.288 5.55821 19.0133 7.48657 17.5915 9.94428C18.3877 11.3244 19.4682 12.5343 20.7383 13.4985L18.1413 18.9622H38.0644L35.4674 13.4985C36.7375 12.5343 37.799 11.3244 38.5952 9.94428ZM28.0934 15.994C30.0269 15.994 31.8657 15.5403 33.477 14.7463L34.3869 16.6557H21.7998L22.7097 14.7463C24.34 15.5403 26.1598 15.994 28.0934 15.994ZM24.0746 11.8726L28.0934 3.4219L32.1121 11.8726C31.1074 12.9503 29.6857 13.6498 28.0934 13.6498C26.501 13.6308 25.0793 12.9503 24.0746 11.8726Z" fill="#171A22"/>
<path d="M28.3992 9.62309C29.1124 9.45513 29.5541 8.74235 29.3857 8.03106C29.2172 7.31976 28.5025 6.8793 27.7893 7.04726C27.0761 7.21521 26.6345 7.92799 26.8029 8.63929C26.9713 9.35058 27.686 9.79104 28.3992 9.62309Z" fill="#171A22"/>
</svg>
