<svg width="17" height="17" viewBox="0 0 17 17" fill="none" xmlns="http://www.w3.org/2000/svg">
<path d="M8.50001 0C13.1946 0 17 3.80545 17 8.49999C17 13.1945 13.1946 17 8.50001 17C6.99785 17.0026 5.5221 16.605 4.22451 15.8482L0.00341313 17L1.15261 12.7772C0.395227 11.4792 -0.00261938 10.0028 1.29784e-05 8.49999C1.29784e-05 3.80545 3.80546 0 8.50001 0ZM5.60321 4.505L5.43321 4.5118C5.3233 4.51937 5.2159 4.54824 5.11701 4.5968C5.02485 4.64908 4.94069 4.71435 4.86711 4.7906C4.76511 4.88665 4.70731 4.96995 4.64526 5.0507C4.33086 5.45946 4.16159 5.96131 4.16416 6.47699C4.16586 6.89349 4.27466 7.29894 4.44466 7.67804C4.79231 8.44474 5.36436 9.25649 6.11916 10.0087C6.30106 10.1898 6.47956 10.3717 6.67166 10.5408C7.60957 11.3665 8.72719 11.962 9.93566 12.2799L10.4185 12.3539C10.5757 12.3624 10.733 12.3505 10.8911 12.3428C11.1386 12.3298 11.3802 12.2628 11.5991 12.1465C11.7103 12.089 11.8189 12.0266 11.9247 11.9595C11.9247 11.9595 11.9606 11.9351 12.0309 11.883C12.1457 11.798 12.2162 11.7376 12.3114 11.6382C12.3828 11.5645 12.4423 11.479 12.4899 11.3815C12.5562 11.2429 12.6225 10.9786 12.6497 10.7584C12.6701 10.5901 12.6642 10.4983 12.6616 10.4414C12.6582 10.3504 12.5826 10.2561 12.5001 10.2161L12.0054 9.99429C12.0054 9.99429 11.2659 9.67214 10.8137 9.46644C10.7664 9.44584 10.7157 9.43403 10.6641 9.43159C10.6059 9.42551 10.5472 9.432 10.4917 9.45062C10.4363 9.46925 10.3855 9.49957 10.3428 9.53954C10.3386 9.53784 10.2816 9.58629 9.66706 10.3309C9.63178 10.3783 9.5832 10.4141 9.52749 10.4338C9.47178 10.4535 9.41147 10.4561 9.35426 10.4414C9.29886 10.4266 9.2446 10.4079 9.19191 10.3853C9.08651 10.3411 9.04996 10.3241 8.97771 10.2935C8.4897 10.0809 8.03798 9.79325 7.63896 9.44094C7.53186 9.34744 7.43241 9.24544 7.33041 9.14684C6.99603 8.82657 6.7046 8.46428 6.46341 8.06904L6.41326 7.98829C6.37778 7.93372 6.34869 7.87526 6.32656 7.81404C6.29426 7.68909 6.37841 7.58879 6.37841 7.58879C6.37841 7.58879 6.58496 7.36269 6.68101 7.24029C6.77451 7.12129 6.85356 7.0057 6.90456 6.92325C7.00486 6.76175 7.03631 6.596 6.98361 6.46765C6.74561 5.88625 6.49967 5.30796 6.24581 4.7328C6.19566 4.6189 6.04691 4.5373 5.91176 4.52115C5.86586 4.51548 5.81996 4.51095 5.77406 4.50755C5.65993 4.501 5.54549 4.50214 5.43151 4.51095L5.60321 4.505Z" fill="#4185DE"/>
</svg>
