<svg width="18" height="20" viewBox="0 0 18 20" fill="none" xmlns="http://www.w3.org/2000/svg">
<path fill-rule="evenodd" clip-rule="evenodd" d="M3.33333 0H14.6667C14.9762 0 15.131 0 15.2615 0.0119774C16.7118 0.145106 17.8617 1.35155 17.9886 2.87321C18 3.01012 18 3.1725 18 3.49727V18.2598C18 19.1323 16.9413 19.5026 16.4423 18.8045C16.0962 18.3203 15.4038 18.3203 15.0577 18.8045L14.625 19.4098C14.0625 20.1967 12.9375 20.1967 12.375 19.4098C11.8125 18.623 10.6875 18.623 10.125 19.4098C9.5625 20.1967 8.4375 20.1967 7.875 19.4098C7.3125 18.623 6.1875 18.623 5.625 19.4098C5.0625 20.1967 3.9375 20.1967 3.375 19.4098L2.94231 18.8045C2.59615 18.3203 1.90385 18.3203 1.55769 18.8045C1.05871 19.5026 0 19.1323 0 18.2598V3.49727C0 3.1725 0 3.01012 0.0114159 2.87321C0.138304 1.35155 1.28819 0.145106 2.73853 0.0119774C2.86902 0 3.02379 0 3.33333 0ZM7.53035 5.46967C7.23745 5.17678 6.76258 5.17678 6.46969 5.46967C6.17679 5.76256 6.17679 6.23744 6.46969 6.53033L7.93937 8.00001L6.4697 9.46967C6.17681 9.76256 6.17681 10.2374 6.4697 10.5303C6.7626 10.8232 7.23747 10.8232 7.53036 10.5303L9.00003 9.06067L10.4697 10.5303C10.7626 10.8232 11.2374 10.8232 11.5303 10.5303C11.8232 10.2374 11.8232 9.76255 11.5303 9.46965L10.0607 8.00001L11.5303 6.53035C11.8232 6.23745 11.8232 5.76258 11.5303 5.46969C11.2375 5.17679 10.7626 5.17679 10.4697 5.46969L9.00003 6.93935L7.53035 5.46967ZM4.5 12.75C4.08579 12.75 3.75 13.0858 3.75 13.5C3.75 13.9142 4.08579 14.25 4.5 14.25H13.5C13.9142 14.25 14.25 13.9142 14.25 13.5C14.25 13.0858 13.9142 12.75 13.5 12.75H4.5Z" fill="#6C6C6C"/>
</svg>
