<svg width="15" height="15" viewBox="0 0 15 15" fill="none" xmlns="http://www.w3.org/2000/svg">
<path fill-rule="evenodd" clip-rule="evenodd" d="M15 7.5C15 11.6421 11.6421 15 7.5 15C3.35786 15 0 11.6421 0 7.5C0 3.35786 3.35786 0 7.5 0C11.6421 0 15 3.35786 15 7.5ZM10.5227 5.22725C10.7424 5.44692 10.7424 5.80308 10.5227 6.02275L6.77275 9.77275C6.55308 9.99242 6.19692 9.99242 5.97725 9.77275L4.47725 8.27275C4.25758 8.05308 4.25758 7.69692 4.47725 7.47725C4.69692 7.25758 5.05308 7.25758 5.27275 7.47725L6.375 8.5795L8.05113 6.90338L9.72725 5.22725C9.94692 5.00758 10.3031 5.00758 10.5227 5.22725Z" fill="#9FE1A7"/>
</svg>
