<svg width="354" height="188" viewBox="0 0 354 188" fill="none" xmlns="http://www.w3.org/2000/svg">
<mask id="mask0_429_630" style="mask-type:alpha" maskUnits="userSpaceOnUse" x="0" y="0" width="354" height="188">
<path d="M0 20C0 8.9543 8.95431 0 20 0H334C345.046 0 354 8.95431 354 20V168C354 179.046 345.046 188 334 188H20C8.9543 188 0 179.046 0 168V20Z" fill="#F6F6F9"/>
</mask>
<g mask="url(#mask0_429_630)">
<circle cx="176.5" cy="206.5" r="173.5" fill="white"/>
<line opacity="0.6" x1="176.5" y1="65" x2="176.5" y2="100" stroke="url(#paint0_linear_429_630)"/>
<line opacity="0.6" x1="249.646" y1="134.646" x2="274.395" y2="109.898" stroke="url(#paint1_linear_429_630)"/>
<line opacity="0.6" x1="80.3536" y1="109.646" x2="105.102" y2="134.395" stroke="url(#paint2_linear_429_630)"/>
<circle cx="176.5" cy="32.5" r="23.5" fill="white" stroke="#F6F6F9" stroke-width="2"/>
<circle cx="51.5" cy="89.5" r="23.5" fill="white" stroke="#F6F6F9" stroke-width="2"/>
<circle cx="301.5" cy="89.5" r="23.5" fill="white" stroke="#F6F6F9" stroke-width="2"/>
<path d="M89 153.824C89 146.752 89 143.216 90.8263 140.754C91.3704 140.02 92.0198 139.37 92.7535 138.826C95.2164 137 98.7521 137 105.824 137H248.176C255.248 137 258.784 137 261.246 138.826C261.98 139.37 262.63 140.02 263.174 140.754C265 143.216 265 146.752 265 153.824C265 160.895 265 164.431 263.174 166.894C262.63 167.627 261.98 168.277 261.246 168.821C258.784 170.647 255.248 170.647 248.176 170.647H105.824C98.7521 170.647 95.2164 170.647 92.7535 168.821C92.0198 168.277 91.3704 167.627 90.8263 166.894C89 164.431 89 160.895 89 153.824Z" fill="url(#paint3_linear_429_630)"/>
<path d="M105.823 137.162H248.177C251.716 137.162 254.357 137.163 256.422 137.39C258.483 137.616 259.951 138.068 261.149 138.957C261.87 139.492 262.508 140.13 263.043 140.851C263.932 142.049 264.384 143.516 264.61 145.578C264.837 147.643 264.838 150.284 264.838 153.823C264.838 157.363 264.837 160.005 264.61 162.069C264.384 164.131 263.932 165.598 263.043 166.797C262.508 167.518 261.87 168.156 261.149 168.69C259.951 169.579 258.483 170.031 256.422 170.258C254.357 170.485 251.716 170.484 248.177 170.484H105.823C102.284 170.484 99.6428 170.485 97.5781 170.258C95.5166 170.031 94.0494 169.579 92.8506 168.69C92.1297 168.156 91.4916 167.518 90.957 166.797C90.0681 165.598 89.6164 164.131 89.3896 162.069C89.1626 160.005 89.1621 157.363 89.1621 153.823C89.1621 150.284 89.1626 147.643 89.3896 145.578C89.6164 143.516 90.0681 142.049 90.957 140.851C91.4916 140.13 92.1297 139.492 92.8506 138.957C94.0495 138.068 95.5165 137.616 97.5781 137.39C99.6428 137.163 102.284 137.162 105.823 137.162Z" stroke="white" stroke-opacity="0.18" stroke-width="0.324618"/>
<g filter="url(#filter0_i_429_630)">
<circle cx="111.765" cy="153.824" r="5.82353" fill="#7DB0E9" fill-opacity="0.1"/>
</g>
<mask id="path-12-inside-1_429_630" fill="white">
<path d="M105.941 153.823C105.941 154.975 106.283 156.101 106.923 157.059C107.562 158.016 108.472 158.763 109.536 159.204C110.6 159.644 111.771 159.76 112.901 159.535C114.03 159.31 115.068 158.756 115.883 157.941C116.697 157.127 117.252 156.089 117.476 154.96C117.701 153.83 117.586 152.659 117.145 151.595C116.704 150.531 115.958 149.621 115 148.981C114.042 148.341 112.916 148 111.765 148L111.765 149.469C112.626 149.469 113.468 149.724 114.184 150.203C114.9 150.681 115.458 151.361 115.788 152.157C116.118 152.953 116.204 153.828 116.036 154.673C115.868 155.518 115.453 156.294 114.844 156.903C114.235 157.512 113.459 157.927 112.614 158.095C111.769 158.263 110.894 158.176 110.098 157.847C109.302 157.517 108.622 156.959 108.144 156.243C107.665 155.527 107.41 154.685 107.41 153.823L105.941 153.823Z"/>
</mask>
<path d="M105.941 153.823C105.941 154.975 106.283 156.101 106.923 157.059C107.562 158.016 108.472 158.763 109.536 159.204C110.6 159.644 111.771 159.76 112.901 159.535C114.03 159.31 115.068 158.756 115.883 157.941C116.697 157.127 117.252 156.089 117.476 154.96C117.701 153.83 117.586 152.659 117.145 151.595C116.704 150.531 115.958 149.621 115 148.981C114.042 148.341 112.916 148 111.765 148L111.765 149.469C112.626 149.469 113.468 149.724 114.184 150.203C114.9 150.681 115.458 151.361 115.788 152.157C116.118 152.953 116.204 153.828 116.036 154.673C115.868 155.518 115.453 156.294 114.844 156.903C114.235 157.512 113.459 157.927 112.614 158.095C111.769 158.263 110.894 158.176 110.098 157.847C109.302 157.517 108.622 156.959 108.144 156.243C107.665 155.527 107.41 154.685 107.41 153.823L105.941 153.823Z" fill="white" stroke="white" stroke-width="0.665546" mask="url(#path-12-inside-1_429_630)"/>
<path fill-rule="evenodd" clip-rule="evenodd" d="M111.865 151.863C111.774 151.593 111.422 151.593 111.331 151.863L110.92 153.089L109.788 153.534C109.539 153.633 109.539 154.014 109.788 154.112L110.92 154.558L111.331 155.784C111.422 156.054 111.774 156.054 111.865 155.784L112.277 154.558L113.408 154.112C113.657 154.014 113.657 153.633 113.408 153.534L112.277 153.089L111.865 151.863Z" fill="white"/>
<path fill-rule="evenodd" clip-rule="evenodd" d="M109.879 151.406C109.841 151.302 109.695 151.302 109.657 151.406L109.485 151.877L109.014 152.049C108.91 152.086 108.91 152.233 109.014 152.271L109.485 152.442L109.657 152.914C109.695 153.018 109.841 153.018 109.879 152.914L110.051 152.442L110.522 152.271C110.626 152.233 110.626 152.086 110.522 152.049L110.051 151.877L109.879 151.406Z" fill="white"/>
<path fill-rule="evenodd" clip-rule="evenodd" d="M109.879 154.733C109.841 154.629 109.695 154.629 109.657 154.733L109.485 155.205L109.014 155.376C108.91 155.414 108.91 155.561 109.014 155.598L109.485 155.77L109.657 156.241C109.695 156.345 109.841 156.345 109.879 156.241L110.051 155.77L110.522 155.598C110.626 155.561 110.626 155.414 110.522 155.376L110.051 155.205L109.879 154.733Z" fill="white"/>
<path d="M124.319 158.823L127.36 149.467H129.316L132.356 158.823H130.946L128.146 150.285H128.497L125.729 158.823H124.319ZM125.898 156.712V155.438H130.784V156.712H125.898ZM133.386 158.823V151.806H134.744V154.671H138.168V151.806H139.526V158.823H138.168V155.951H134.744V158.823H133.386ZM143.201 159.018C142.681 159.018 142.246 158.923 141.895 158.733C141.544 158.538 141.278 158.282 141.096 157.966C140.918 157.645 140.83 157.294 140.83 156.913C140.83 156.558 140.892 156.246 141.018 155.977C141.144 155.709 141.33 155.481 141.577 155.295C141.824 155.105 142.127 154.951 142.487 154.834C142.798 154.743 143.151 154.663 143.546 154.593C143.94 154.524 144.354 154.459 144.787 154.399C145.224 154.338 145.657 154.277 146.086 154.217L145.592 154.489C145.601 153.939 145.484 153.532 145.242 153.268C145.003 152.999 144.592 152.865 144.007 152.865C143.639 152.865 143.301 152.952 142.993 153.125C142.686 153.294 142.471 153.575 142.35 153.97L141.083 153.58C141.256 152.978 141.586 152.499 142.071 152.144C142.56 151.789 143.21 151.611 144.02 151.611C144.648 151.611 145.194 151.719 145.657 151.936C146.125 152.148 146.467 152.486 146.684 152.95C146.797 153.179 146.866 153.422 146.892 153.677C146.918 153.933 146.931 154.208 146.931 154.502V158.823H145.729V157.219L145.963 157.426C145.673 157.964 145.302 158.364 144.852 158.629C144.406 158.888 143.855 159.018 143.201 159.018ZM143.442 157.907C143.827 157.907 144.159 157.84 144.436 157.706C144.713 157.567 144.936 157.392 145.105 157.18C145.274 156.967 145.385 156.746 145.436 156.517C145.51 156.309 145.551 156.075 145.56 155.815C145.573 155.555 145.579 155.347 145.579 155.191L146.021 155.354C145.592 155.419 145.203 155.477 144.852 155.529C144.501 155.581 144.182 155.633 143.897 155.685C143.615 155.733 143.364 155.791 143.143 155.861C142.957 155.925 142.79 156.003 142.642 156.094C142.5 156.185 142.385 156.296 142.298 156.426C142.216 156.556 142.175 156.714 142.175 156.9C142.175 157.082 142.22 157.251 142.311 157.407C142.402 157.559 142.541 157.68 142.727 157.771C142.913 157.862 143.151 157.907 143.442 157.907ZM147.839 158.823V157.673C148.098 157.721 148.296 157.715 148.43 157.654C148.568 157.589 148.67 157.472 148.735 157.303C148.805 157.134 148.863 156.915 148.911 156.647C148.984 156.253 149.047 155.804 149.099 155.302C149.155 154.795 149.205 154.247 149.249 153.658C149.292 153.069 149.331 152.451 149.365 151.806H154.408V158.823H153.043V153.086H150.587C150.561 153.428 150.531 153.792 150.496 154.178C150.466 154.559 150.431 154.938 150.392 155.315C150.353 155.692 150.312 156.045 150.269 156.374C150.225 156.703 150.18 156.985 150.132 157.219C150.046 157.686 149.918 158.059 149.749 158.336C149.584 158.609 149.35 158.784 149.047 158.862C148.744 158.945 148.341 158.932 147.839 158.823ZM162.013 151.806V158.823H160.707V153.944L157.198 158.823H156.093V151.806H157.399V156.588L160.915 151.806H162.013ZM166.2 159.018C165.52 159.018 164.909 158.873 164.368 158.583C163.831 158.293 163.406 157.892 163.094 157.381L164.173 156.673C164.424 157.011 164.714 157.273 165.044 157.459C165.377 157.645 165.752 157.738 166.168 157.738C166.601 157.738 166.943 157.641 167.194 157.446C167.45 157.247 167.578 156.98 167.578 156.647C167.578 156.383 167.504 156.188 167.357 156.062C167.214 155.932 167.015 155.848 166.759 155.809C166.508 155.77 166.222 155.75 165.901 155.75H165.278V154.658H165.901C166.326 154.658 166.675 154.6 166.947 154.483C167.225 154.362 167.363 154.134 167.363 153.801C167.363 153.476 167.244 153.242 167.006 153.099C166.772 152.956 166.493 152.885 166.168 152.885C165.804 152.885 165.451 152.963 165.109 153.118C164.766 153.27 164.467 153.459 164.212 153.684L163.419 152.755C163.792 152.395 164.216 152.116 164.693 151.916C165.174 151.713 165.689 151.611 166.239 151.611C166.69 151.611 167.106 151.691 167.487 151.851C167.872 152.007 168.18 152.239 168.409 152.547C168.643 152.854 168.76 153.233 168.76 153.684C168.76 154.035 168.682 154.355 168.526 154.645C168.37 154.936 168.132 155.2 167.812 155.438L167.773 154.977C168.037 155.059 168.258 155.191 168.435 155.373C168.613 155.555 168.745 155.77 168.832 156.016C168.923 156.259 168.968 156.517 168.968 156.79C168.968 157.262 168.843 157.665 168.591 157.998C168.344 158.332 168.011 158.585 167.591 158.759C167.171 158.932 166.707 159.018 166.2 159.018ZM172.221 160.383V157.732C172.607 157.732 172.882 157.604 173.047 157.348C173.215 157.089 173.35 156.649 173.449 156.029C173.51 155.653 173.56 155.252 173.599 154.827C173.642 154.403 173.679 153.944 173.709 153.45C173.74 152.952 173.77 152.404 173.8 151.806H178.829V157.732H179.518V160.383H178.232V158.823H173.514V160.383H172.221ZM174.164 157.732H177.465V152.898H175.009C174.991 153.183 174.972 153.478 174.95 153.781C174.933 154.084 174.911 154.386 174.885 154.684C174.864 154.983 174.838 155.269 174.807 155.542C174.777 155.815 174.742 156.062 174.703 156.283C174.651 156.625 174.589 156.911 174.515 157.141C174.446 157.37 174.329 157.567 174.164 157.732ZM183.476 159.018C182.774 159.018 182.166 158.86 181.65 158.544C181.135 158.228 180.736 157.793 180.455 157.238C180.178 156.679 180.039 156.036 180.039 155.308C180.039 154.576 180.182 153.933 180.468 153.378C180.754 152.82 181.154 152.386 181.67 152.079C182.185 151.767 182.787 151.611 183.476 151.611C184.178 151.611 184.787 151.769 185.302 152.085C185.818 152.402 186.216 152.837 186.498 153.391C186.779 153.946 186.92 154.585 186.92 155.308C186.92 156.04 186.777 156.686 186.491 157.245C186.21 157.799 185.811 158.234 185.296 158.551C184.78 158.862 184.174 159.018 183.476 159.018ZM183.476 157.738C184.148 157.738 184.648 157.513 184.977 157.063C185.311 156.608 185.477 156.023 185.477 155.308C185.477 154.576 185.309 153.991 184.971 153.554C184.637 153.112 184.139 152.891 183.476 152.891C183.021 152.891 182.647 152.995 182.352 153.203C182.058 153.407 181.839 153.69 181.696 154.054C181.553 154.414 181.481 154.832 181.481 155.308C181.481 156.045 181.65 156.634 181.988 157.076C182.326 157.517 182.822 157.738 183.476 157.738ZM188.211 158.823L188.218 151.806H189.595V155.185L192.35 151.806H194.079L191.168 155.315L194.378 158.823H192.532L189.595 155.445V158.823H188.211ZM195.852 161.942L197.21 158.245L197.229 159.337L194.169 151.806H195.585L197.872 157.621H197.457L199.64 151.806H201.017L197.145 161.942H195.852ZM201.899 158.823V151.806H203.036L205.629 156.952L208.215 151.806H209.358V158.823H208.046V154.587L205.934 158.823H205.317L203.205 154.587V158.823H201.899ZM214.165 159.018C213.467 159.018 212.854 158.867 212.326 158.564C211.802 158.256 211.392 157.829 211.098 157.284C210.808 156.733 210.663 156.097 210.663 155.373C210.663 154.606 210.805 153.942 211.091 153.378C211.382 152.815 211.784 152.38 212.3 152.072C212.815 151.765 213.415 151.611 214.1 151.611C214.815 151.611 215.423 151.778 215.926 152.111C216.428 152.441 216.803 152.911 217.05 153.521C217.301 154.132 217.401 154.858 217.349 155.698H215.991V155.204C215.982 154.39 215.826 153.788 215.523 153.398C215.224 153.008 214.767 152.813 214.152 152.813C213.472 152.813 212.961 153.028 212.618 153.456C212.276 153.885 212.105 154.505 212.105 155.315C212.105 156.086 212.276 156.684 212.618 157.108C212.961 157.528 213.454 157.738 214.1 157.738C214.524 157.738 214.89 157.643 215.198 157.452C215.51 157.258 215.752 156.98 215.926 156.621L217.258 157.043C216.985 157.671 216.571 158.159 216.017 158.505C215.462 158.847 214.845 159.018 214.165 159.018ZM211.663 155.698V154.639H216.673V155.698H211.663ZM218.67 158.823V151.806H220.028V154.671H223.452V151.806H224.81V158.823H223.452V155.951H220.028V158.823H218.67ZM228.317 158.823V153.028H225.919V151.806H232.072V153.028H229.675V158.823H228.317ZM236.097 159.018C235.395 159.018 234.786 158.86 234.271 158.544C233.755 158.228 233.357 157.793 233.075 157.238C232.798 156.679 232.659 156.036 232.659 155.308C232.659 154.576 232.802 153.933 233.088 153.378C233.374 152.82 233.775 152.386 234.29 152.079C234.806 151.767 235.408 151.611 236.097 151.611C236.798 151.611 237.407 151.769 237.923 152.085C238.438 152.402 238.837 152.837 239.118 153.391C239.4 153.946 239.541 154.585 239.541 155.308C239.541 156.04 239.398 156.686 239.112 157.245C238.83 157.799 238.432 158.234 237.916 158.551C237.401 158.862 236.794 159.018 236.097 159.018ZM236.097 157.738C236.768 157.738 237.268 157.513 237.598 157.063C237.931 156.608 238.098 156.023 238.098 155.308C238.098 154.576 237.929 153.991 237.591 153.554C237.258 153.112 236.759 152.891 236.097 152.891C235.642 152.891 235.267 152.995 234.973 153.203C234.678 153.407 234.459 153.69 234.316 154.054C234.173 154.414 234.102 154.832 234.102 155.308C234.102 156.045 234.271 156.634 234.609 157.076C234.947 157.517 235.443 157.738 236.097 157.738ZM240.832 158.823V151.806H243.918C244.122 151.806 244.326 151.819 244.529 151.845C244.733 151.867 244.913 151.899 245.068 151.942C245.424 152.042 245.727 152.241 245.978 152.54C246.229 152.835 246.355 153.229 246.355 153.723C246.355 154.004 246.312 154.243 246.225 154.438C246.138 154.628 246.019 154.793 245.868 154.931C245.798 154.992 245.725 155.046 245.647 155.094C245.569 155.141 245.491 155.178 245.413 155.204C245.573 155.23 245.731 155.287 245.887 155.373C246.125 155.499 246.32 155.681 246.472 155.919C246.628 156.153 246.706 156.467 246.706 156.861C246.706 157.333 246.591 157.73 246.362 158.05C246.132 158.366 245.807 158.583 245.387 158.7C245.222 158.748 245.036 158.78 244.828 158.797C244.624 158.815 244.421 158.823 244.217 158.823H240.832ZM242.209 157.751H244.133C244.224 157.751 244.328 157.743 244.445 157.725C244.562 157.708 244.666 157.684 244.757 157.654C244.951 157.593 245.09 157.483 245.172 157.323C245.259 157.162 245.302 156.991 245.302 156.809C245.302 156.562 245.237 156.365 245.107 156.218C244.977 156.066 244.813 155.969 244.614 155.925C244.527 155.895 244.432 155.878 244.328 155.874C244.224 155.869 244.135 155.867 244.061 155.867H242.209V157.751ZM242.209 154.775H243.73C243.856 154.775 243.983 154.769 244.113 154.756C244.243 154.739 244.356 154.71 244.451 154.671C244.62 154.606 244.746 154.498 244.828 154.347C244.91 154.191 244.951 154.022 244.951 153.84C244.951 153.64 244.906 153.463 244.815 153.307C244.724 153.151 244.588 153.043 244.406 152.982C244.28 152.939 244.135 152.915 243.97 152.911C243.81 152.902 243.708 152.898 243.665 152.898H242.209V154.775Z" fill="white"/>
<path d="M182.374 33.4314L182.72 32.1435C183.122 30.6401 183.324 29.8885 183.172 29.2379C183.052 28.7243 182.783 28.2577 182.398 27.8972C181.91 27.4406 181.159 27.2391 179.655 26.8363C178.152 26.4335 177.4 26.2321 176.75 26.3837C176.236 26.5035 175.77 26.7729 175.409 27.1578C175.018 27.5752 174.814 28.1863 174.511 29.297C174.46 29.4835 174.406 29.6842 174.348 29.9003L174.348 29.9004L174.003 31.1883C173.6 32.6917 173.399 33.4434 173.55 34.0939C173.67 34.6076 173.94 35.0742 174.325 35.4347C174.812 35.8913 175.564 36.0927 177.067 36.4956C178.422 36.8587 179.167 37.0581 179.777 36.9829C179.843 36.9746 179.909 36.9631 179.973 36.9481C180.486 36.8284 180.953 36.559 181.314 36.174C181.77 35.6865 181.972 34.9348 182.374 33.4314Z" fill="url(#paint4_linear_429_630)"/>
<path d="M170.67 34.81L171.015 36.0979C171.418 37.6013 171.619 38.353 172.076 38.8405C172.436 39.2255 172.903 39.4949 173.416 39.6146C174.067 39.7663 174.819 39.5649 176.322 39.162C177.825 38.7592 178.577 38.5578 179.065 38.1012C179.105 38.0633 179.144 38.0242 179.182 37.984C178.959 37.9653 178.735 37.9295 178.506 37.8841C178.042 37.7918 177.491 37.644 176.839 37.4693L176.767 37.4502L176.751 37.4458C176.041 37.2557 175.449 37.0965 174.975 36.9255C174.477 36.7457 174.025 36.524 173.641 36.1643C173.112 35.6685 172.741 35.027 172.577 34.3207C172.457 33.8082 172.491 33.3056 172.584 32.7846C172.674 32.2854 172.834 31.687 173.026 30.9701L173.026 30.9701L173.382 29.6405L173.395 29.5938C172.115 29.9387 171.441 30.1427 170.991 30.5637C170.606 30.9242 170.337 31.3908 170.217 31.9044C170.065 32.5549 170.267 33.3066 170.67 34.81Z" fill="url(#paint5_linear_429_630)"/>
<path d="M57.3744 90.4314L57.7195 89.1435C58.1223 87.6401 58.3237 86.8885 58.1721 86.2379C58.0523 85.7243 57.7829 85.2577 57.398 84.8972C56.9105 84.4406 56.1588 84.2391 54.6554 83.8363C53.152 83.4335 52.4003 83.2321 51.7498 83.3837C51.2361 83.5035 50.7695 83.7729 50.409 84.1578C50.0181 84.5752 49.8142 85.1863 49.5108 86.297C49.4599 86.4835 49.4061 86.6842 49.3482 86.9003L49.3481 86.9004L49.0031 88.1883C48.6002 89.6917 48.3988 90.4434 48.5505 91.0939C48.6702 91.6076 48.9396 92.0742 49.3246 92.4347C49.8121 92.8913 50.5638 93.0927 52.0672 93.4956C53.4222 93.8587 54.1666 94.0581 54.7767 93.9829C54.8434 93.9746 54.9086 93.9631 54.9728 93.9481C55.4864 93.8284 55.953 93.559 56.3135 93.174C56.7702 92.6865 56.9716 91.9348 57.3744 90.4314Z" fill="url(#paint6_linear_429_630)"/>
<path d="M45.6697 91.81L46.0148 93.0979C46.4177 94.6013 46.6191 95.353 47.0757 95.8405C47.4362 96.2255 47.9028 96.4949 48.4165 96.6146C49.067 96.7663 49.8187 96.5649 51.3221 96.162C52.8254 95.7592 53.5771 95.5578 54.0647 95.1012C54.1051 95.0633 54.1443 95.0242 54.1822 94.984C53.9594 94.9653 53.7347 94.9295 53.5063 94.8841C53.0422 94.7918 52.4908 94.644 51.8387 94.4693L51.7675 94.4502L51.751 94.4458C51.0414 94.2557 50.4486 94.0965 49.9752 93.9255C49.4774 93.7457 49.0251 93.524 48.641 93.1643C48.1117 92.6685 47.7413 92.027 47.5766 91.3207C47.4571 90.8082 47.4913 90.3056 47.5845 89.7846C47.6737 89.2854 47.8341 88.687 48.0262 87.9701L48.0262 87.9701L48.3825 86.6405L48.395 86.5938C47.1146 86.9387 46.4407 87.1427 45.9913 87.5637C45.6063 87.9242 45.3369 88.3908 45.2172 88.9044C45.0655 89.5549 45.2669 90.3066 45.6697 91.81Z" fill="url(#paint7_linear_429_630)"/>
<path d="M307.374 90.4314L307.72 89.1435C308.122 87.6401 308.324 86.8885 308.172 86.2379C308.052 85.7243 307.783 85.2577 307.398 84.8972C306.91 84.4406 306.159 84.2391 304.655 83.8363C303.152 83.4335 302.4 83.2321 301.75 83.3837C301.236 83.5035 300.77 83.7729 300.409 84.1578C300.018 84.5752 299.814 85.1863 299.511 86.297C299.46 86.4835 299.406 86.6842 299.348 86.9003L299.348 86.9004L299.003 88.1883C298.6 89.6917 298.399 90.4434 298.55 91.0939C298.67 91.6076 298.94 92.0742 299.325 92.4347C299.812 92.8913 300.564 93.0927 302.067 93.4956C303.422 93.8587 304.167 94.0581 304.777 93.9829C304.843 93.9746 304.909 93.9631 304.973 93.9481C305.486 93.8284 305.953 93.559 306.314 93.174C306.77 92.6865 306.972 91.9348 307.374 90.4314Z" fill="url(#paint8_linear_429_630)"/>
<path d="M295.67 91.81L296.015 93.0979C296.418 94.6013 296.619 95.353 297.076 95.8405C297.436 96.2255 297.903 96.4949 298.416 96.6146C299.067 96.7663 299.819 96.5649 301.322 96.162C302.825 95.7592 303.577 95.5578 304.065 95.1012C304.105 95.0633 304.144 95.0242 304.182 94.984C303.959 94.9653 303.735 94.9295 303.506 94.8841C303.042 94.7918 302.491 94.644 301.839 94.4693L301.767 94.4502L301.751 94.4458C301.041 94.2557 300.449 94.0965 299.975 93.9255C299.477 93.7457 299.025 93.524 298.641 93.1643C298.112 92.6685 297.741 92.027 297.577 91.3207C297.457 90.8082 297.491 90.3056 297.584 89.7846C297.674 89.2854 297.834 88.687 298.026 87.9701L298.026 87.9701L298.382 86.6405L298.395 86.5938C297.115 86.9387 296.441 87.1427 295.991 87.5637C295.606 87.9242 295.337 88.3908 295.217 88.9044C295.065 89.5549 295.267 90.3066 295.67 91.81Z" fill="url(#paint9_linear_429_630)"/>
</g>
<defs>
<filter id="filter0_i_429_630" x="105.941" y="148" width="11.647" height="11.647" filterUnits="userSpaceOnUse" color-interpolation-filters="sRGB">
<feFlood flood-opacity="0" result="BackgroundImageFix"/>
<feBlend mode="normal" in="SourceGraphic" in2="BackgroundImageFix" result="shape"/>
<feColorMatrix in="SourceAlpha" type="matrix" values="0 0 0 0 0 0 0 0 0 0 0 0 0 0 0 0 0 0 127 0" result="hardAlpha"/>
<feOffset/>
<feGaussianBlur stdDeviation="1.66387"/>
<feComposite in2="hardAlpha" operator="arithmetic" k2="-1" k3="1"/>
<feColorMatrix type="matrix" values="0 0 0 0 0.388862 0 0 0 0 0.589976 0 0 0 0 0.817552 0 0 0 0.5 0"/>
<feBlend mode="normal" in2="shape" result="effect1_innerShadow_429_630"/>
</filter>
<linearGradient id="paint0_linear_429_630" x1="175.5" y1="65" x2="175.5" y2="100" gradientUnits="userSpaceOnUse">
<stop stop-color="#11A8FF"/>
<stop offset="1" stop-color="#11A8FF" stop-opacity="0.05"/>
</linearGradient>
<linearGradient id="paint1_linear_429_630" x1="250.354" y1="135.354" x2="275.102" y2="110.605" gradientUnits="userSpaceOnUse">
<stop stop-color="#4185DE" stop-opacity="0.05"/>
<stop offset="1" stop-color="#4185DE"/>
</linearGradient>
<linearGradient id="paint2_linear_429_630" x1="79.6464" y1="110.354" x2="104.395" y2="135.102" gradientUnits="userSpaceOnUse">
<stop stop-color="#11A8FF"/>
<stop offset="1" stop-color="#11A8FF" stop-opacity="0.05"/>
</linearGradient>
<linearGradient id="paint3_linear_429_630" x1="89" y1="158.645" x2="264.445" y2="169.161" gradientUnits="userSpaceOnUse">
<stop stop-color="#4185DE"/>
<stop offset="1" stop-color="#11A8FF"/>
</linearGradient>
<linearGradient id="paint4_linear_429_630" x1="173.5" y1="33.1943" x2="183.226" y2="33.2959" gradientUnits="userSpaceOnUse">
<stop stop-color="#4185DE"/>
<stop offset="1" stop-color="#11A8FF"/>
</linearGradient>
<linearGradient id="paint5_linear_429_630" x1="170.167" y1="36.0727" x2="179.185" y2="36.1652" gradientUnits="userSpaceOnUse">
<stop stop-color="#4185DE"/>
<stop offset="1" stop-color="#11A8FF"/>
</linearGradient>
<linearGradient id="paint6_linear_429_630" x1="48.5" y1="90.1943" x2="58.2257" y2="90.2959" gradientUnits="userSpaceOnUse">
<stop stop-color="#4185DE"/>
<stop offset="1" stop-color="#11A8FF"/>
</linearGradient>
<linearGradient id="paint7_linear_429_630" x1="45.1667" y1="93.0727" x2="54.1851" y2="93.1652" gradientUnits="userSpaceOnUse">
<stop stop-color="#4185DE"/>
<stop offset="1" stop-color="#11A8FF"/>
</linearGradient>
<linearGradient id="paint8_linear_429_630" x1="298.5" y1="90.1943" x2="308.226" y2="90.2959" gradientUnits="userSpaceOnUse">
<stop stop-color="#4185DE"/>
<stop offset="1" stop-color="#11A8FF"/>
</linearGradient>
<linearGradient id="paint9_linear_429_630" x1="295.167" y1="93.0727" x2="304.185" y2="93.1652" gradientUnits="userSpaceOnUse">
<stop stop-color="#4185DE"/>
<stop offset="1" stop-color="#11A8FF"/>
</linearGradient>
</defs>
</svg>
