<svg width="324" height="162" viewBox="0 0 324 162" fill="none" xmlns="http://www.w3.org/2000/svg">
<rect width="37" height="37" rx="10" fill="url(#paint0_linear_429_980)"/>
<rect x="53" width="271" height="76" rx="15" fill="white"/>
<path fill-rule="evenodd" clip-rule="evenodd" d="M80.5 24C80.5 28.1421 77.1421 31.5 73 31.5C68.8579 31.5 65.5 28.1421 65.5 24C65.5 19.8579 68.8579 16.5 73 16.5C77.1421 16.5 80.5 19.8579 80.5 24ZM76.0227 21.7273C76.2424 21.9469 76.2424 22.3031 76.0227 22.5227L72.2727 26.2727C72.0531 26.4924 71.6969 26.4924 71.4773 26.2727L69.9773 24.7727C69.7576 24.5531 69.7576 24.1969 69.9773 23.9773C70.1969 23.7576 70.5531 23.7576 70.7727 23.9773L71.875 25.0795L73.5511 23.4034L75.2273 21.7273C75.4469 21.5076 75.8031 21.5076 76.0227 21.7273Z" fill="#9FE1A7"/>
<rect x="93" y="17" width="144" height="6" rx="3" fill="#E9EAED"/>
<rect x="93" y="27" width="99" height="6" rx="3" fill="#E9EAED"/>
<rect opacity="0.4" x="92" y="53" width="192" height="6" rx="3" fill="#E9EAED"/>
<rect x="53" y="86" width="271" height="76" rx="15" fill="#FBFBFC"/>
<circle cx="73.5" cy="110.5" r="7.5" fill="#E3E4E8"/>
<rect x="93" y="103" width="144" height="6" rx="3" fill="#E3E4E8"/>
<rect x="93" y="113" width="99" height="6" rx="3" fill="#E3E4E8"/>
<rect opacity="0.4" x="92" y="139" width="192" height="6" rx="3" fill="#E9EAED"/>
<path d="M16.7292 11.4167C16.1424 11.4167 15.6667 11.8924 15.6667 12.4792V13.1876C15.6667 13.7744 16.1424 14.2501 16.7292 14.2501H20.2708C20.8576 14.2501 21.3333 13.7744 21.3333 13.1876V12.4792C21.3333 11.8924 20.8576 11.4167 20.2708 11.4167H16.7292Z" fill="white"/>
<path fill-rule="evenodd" clip-rule="evenodd" d="M14.6042 12.8594C13.7132 12.9093 13.1507 13.0513 12.7474 13.4546C12.125 14.077 12.125 15.0787 12.125 17.0822V21.3322C12.125 23.3357 12.125 24.3374 12.7474 24.9598C13.3698 25.5822 14.3715 25.5822 16.375 25.5822H20.625C22.6285 25.5822 23.6302 25.5822 24.2526 24.9598C24.875 24.3374 24.875 23.3357 24.875 21.3322V17.0822C24.875 15.0787 24.875 14.077 24.2526 13.4546C23.8493 13.0513 23.2868 12.9093 22.3958 12.8594V13.1876C22.3958 14.3612 21.4444 15.3126 20.2708 15.3126H16.7292C15.5556 15.3126 14.6042 14.3612 14.6042 13.1876V12.8594ZM20.9875 18.8885C21.202 18.6883 21.2136 18.3521 21.0134 18.1376C20.8132 17.9231 20.477 17.9115 20.2625 18.1117L17.5893 20.6067L16.7375 19.8117C16.523 19.6115 16.1868 19.6231 15.9866 19.8376C15.7864 20.0521 15.798 20.3883 16.0125 20.5885L17.2268 21.7218C17.4309 21.9123 17.7477 21.9123 17.9518 21.7218L20.9875 18.8885Z" fill="white"/>
<defs>
<linearGradient id="paint0_linear_429_980" x1="-1.72074e-08" y1="23.8022" x2="37.011" y2="24.2263" gradientUnits="userSpaceOnUse">
<stop stop-color="#4185DE"/>
<stop offset="1" stop-color="#11A8FF"/>
</linearGradient>
</defs>
</svg>
